<svg width="31" height="25" viewBox="0 0 31 25" fill="none" xmlns="http://www.w3.org/2000/svg">
<path d="M8.92 12H13.33V23.13H2.2V13.155L7.24 1.49999H11.965L8.92 12ZM24.25 12H28.66V23.13H17.53V13.155L22.57 1.49999H27.295L24.25 12Z" fill="url(#paint0_linear)"/>
<path d="M8.92 12L7.47936 11.5822L6.9232 13.5H8.92V12ZM13.33 12H14.83V10.5H13.33V12ZM13.33 23.13V24.63H14.83V23.13H13.33ZM2.2 23.13H0.7V24.63H2.2V23.13ZM2.2 13.155L0.823215 12.5596L0.7 12.8446V13.155H2.2ZM7.24 1.5V-5.00679e-06H6.25441L5.86321 0.904628L7.24 1.5ZM11.965 1.5L13.4056 1.91778L13.9618 -5.00679e-06H11.965V1.5ZM24.25 12L22.8094 11.5822L22.2532 13.5H24.25V12ZM28.66 12H30.16V10.5H28.66V12ZM28.66 23.13V24.63H30.16V23.13H28.66ZM17.53 23.13H16.03V24.63H17.53V23.13ZM17.53 13.155L16.1532 12.5596L16.03 12.8446V13.155H17.53ZM22.57 1.5V-5.00679e-06H21.5844L21.1932 0.904628L22.57 1.5ZM27.295 1.5L28.7356 1.91778L29.2918 -5.00679e-06H27.295V1.5ZM8.92 13.5H13.33V10.5H8.92V13.5ZM11.83 12V23.13H14.83V12H11.83ZM13.33 21.63H2.2V24.63H13.33V21.63ZM3.7 23.13V13.155H0.7V23.13H3.7ZM3.57679 13.7504L8.61679 2.09536L5.86321 0.904628L0.823215 12.5596L3.57679 13.7504ZM7.24 3H11.965V-5.00679e-06H7.24V3ZM10.5244 1.08221L7.47936 11.5822L10.3606 12.4178L13.4056 1.91778L10.5244 1.08221ZM24.25 13.5H28.66V10.5H24.25V13.5ZM27.16 12V23.13H30.16V12H27.16ZM28.66 21.63H17.53V24.63H28.66V21.63ZM19.03 23.13V13.155H16.03V23.13H19.03ZM18.9068 13.7504L23.9468 2.09536L21.1932 0.904628L16.1532 12.5596L18.9068 13.7504ZM22.57 3H27.295V-5.00679e-06H22.57V3ZM25.8544 1.08221L22.8094 11.5822L25.6906 12.4178L28.7356 1.91778L25.8544 1.08221Z" fill="white"/>
<defs>
<linearGradient id="paint0_linear" x1="15.5" y1="-4" x2="15.5" y2="34" gradientUnits="userSpaceOnUse">
<stop stop-color="#9A9AEF" stop-opacity="0.55"/>
<stop offset="1" stop-color="#7F96D8"/>
</linearGradient>
</defs>
</svg>
