<svg width="31" height="25" viewBox="0 0 31 25" fill="none" xmlns="http://www.w3.org/2000/svg">
<path d="M6.61 12.63H2.2V1.49999H13.33V11.475L8.29 23.13H3.565L6.61 12.63ZM21.94 12.63H17.53V1.49999H28.66V11.475L23.62 23.13H18.895L21.94 12.63Z" fill="url(#paint0_linear)"/>
<path d="M6.61 12.63L8.05064 13.0478L8.6068 11.13H6.61V12.63ZM2.2 12.63H0.7V14.13H2.2V12.63ZM2.2 1.5V-5.00679e-06H0.7V1.5H2.2ZM13.33 1.5H14.83V-5.00679e-06H13.33V1.5ZM13.33 11.475L14.7068 12.0704L14.83 11.7854V11.475H13.33ZM8.29 23.13V24.63H9.27559L9.66679 23.7254L8.29 23.13ZM3.565 23.13L2.12436 22.7122L1.5682 24.63H3.565V23.13ZM21.94 12.63L23.3806 13.0478L23.9368 11.13H21.94V12.63ZM17.53 12.63H16.03V14.13H17.53V12.63ZM17.53 1.5V-5.00679e-06H16.03V1.5H17.53ZM28.66 1.5H30.16V-5.00679e-06H28.66V1.5ZM28.66 11.475L30.0368 12.0704L30.16 11.7854V11.475H28.66ZM23.62 23.13V24.63H24.6056L24.9968 23.7254L23.62 23.13ZM18.895 23.13L17.4544 22.7122L16.8982 24.63H18.895V23.13ZM6.61 11.13H2.2V14.13H6.61V11.13ZM3.7 12.63V1.5H0.7V12.63H3.7ZM2.2 3H13.33V-5.00679e-06H2.2V3ZM11.83 1.5V11.475H14.83V1.5H11.83ZM11.9532 10.8796L6.91321 22.5346L9.66679 23.7254L14.7068 12.0704L11.9532 10.8796ZM8.29 21.63H3.565V24.63H8.29V21.63ZM5.00564 23.5478L8.05064 13.0478L5.16936 12.2122L2.12436 22.7122L5.00564 23.5478ZM21.94 11.13H17.53V14.13H21.94V11.13ZM19.03 12.63V1.5H16.03V12.63H19.03ZM17.53 3H28.66V-5.00679e-06H17.53V3ZM27.16 1.5V11.475H30.16V1.5H27.16ZM27.2832 10.8796L22.2432 22.5346L24.9968 23.7254L30.0368 12.0704L27.2832 10.8796ZM23.62 21.63H18.895V24.63H23.62V21.63ZM20.3356 23.5478L23.3806 13.0478L20.4994 12.2122L17.4544 22.7122L20.3356 23.5478Z" fill="white"/>
<defs>
<linearGradient id="paint0_linear" x1="15.5" y1="-4" x2="15.5" y2="34" gradientUnits="userSpaceOnUse">
<stop stop-color="#9A9AEF" stop-opacity="0.55"/>
<stop offset="1" stop-color="#7F96D8"/>
</linearGradient>
</defs>
</svg>
