<svg width="20" height="25" viewBox="0 0 20 25" fill="none" xmlns="http://www.w3.org/2000/svg">
<path d="M14.8 3.20654H17.1C17.71 3.20654 18.295 3.44998 18.7264 3.88329C19.1577 4.3166 19.4 4.9043 19.4 5.5171V21.691C19.4 22.3038 19.1577 22.8915 18.7264 23.3248C18.295 23.7581 17.71 24.0015 17.1 24.0015H3.3C2.69 24.0015 2.10499 23.7581 1.67366 23.3248C1.24232 22.8915 1 22.3038 1 21.691V5.5171C1 4.9043 1.24232 4.3166 1.67366 3.88329C2.10499 3.44998 2.69 3.20654 3.3 3.20654H5.60001" stroke="white" stroke-width="0.5" stroke-linecap="round" stroke-linejoin="round"/>
<path d="M13.6497 0.895996H6.74962C6.11449 0.895996 5.59961 1.41322 5.59961 2.05125V4.36177C5.59961 4.9998 6.11449 5.51703 6.74962 5.51703H13.6497C14.2848 5.51703 14.7997 4.9998 14.7997 4.36177V2.05125C14.7997 1.41322 14.2848 0.895996 13.6497 0.895996Z" stroke="white" stroke-width="0.5" stroke-linecap="round" stroke-linejoin="round"/>
</svg>
