<svg width="23" height="25" viewBox="0 0 23 25" fill="none" xmlns="http://www.w3.org/2000/svg">
<path d="M14.3125 10.1932C13.3788 10.1932 12.625 9.43597 12.625 8.49793V2.8471C12.625 1.90907 13.3788 1.15186 14.3125 1.15186C15.2462 1.15186 16 1.90907 16 2.8471V8.49793C16 9.43597 15.2462 10.1932 14.3125 10.1932Z" stroke="white" stroke-width="0.5" stroke-linecap="round" stroke-linejoin="round"/>
<path d="M21.0625 10.1933H19.375V8.49802C19.375 7.55996 20.1288 6.80273 21.0625 6.80273C21.9962 6.80273 22.75 7.55996 22.75 8.49802C22.75 9.43607 21.9962 10.1933 21.0625 10.1933Z" stroke="white" stroke-width="0.5" stroke-linecap="round" stroke-linejoin="round"/>
<path d="M8.6875 14.7139C9.62125 14.7139 10.375 15.4711 10.375 16.4091V22.0599C10.375 22.9979 9.62125 23.7551 8.6875 23.7551C7.75375 23.7551 7 22.9979 7 22.0599V16.4091C7 15.4711 7.75375 14.7139 8.6875 14.7139Z" stroke="white" stroke-width="0.5" stroke-linecap="round" stroke-linejoin="round"/>
<path d="M1.9375 14.7139H3.625V16.4091C3.625 17.3471 2.87125 18.1043 1.9375 18.1043C1.00375 18.1043 0.25 17.3471 0.25 16.4091C0.25 15.4711 1.00375 14.7139 1.9375 14.7139Z" stroke="white" stroke-width="0.5" stroke-linecap="round" stroke-linejoin="round"/>
<path d="M13.75 15.2787C13.75 14.3407 14.5038 13.5835 15.4375 13.5835H21.0625C21.9962 13.5835 22.75 14.3407 22.75 15.2787C22.75 16.2168 21.9962 16.974 21.0625 16.974H15.4375C14.5038 16.974 13.75 16.2168 13.75 15.2787Z" stroke="white" stroke-width="0.5" stroke-linecap="round" stroke-linejoin="round"/>
<path d="M15.4375 20.3647H13.75V22.06C13.75 22.998 14.5038 23.7552 15.4375 23.7552C16.3712 23.7552 17.125 22.998 17.125 22.06C17.125 21.122 16.3712 20.3647 15.4375 20.3647Z" stroke="white" stroke-width="0.5" stroke-linecap="round" stroke-linejoin="round"/>
<path d="M9.25 9.62787C9.25 8.68983 8.49625 7.93262 7.5625 7.93262H1.9375C1.00375 7.93262 0.25 8.68983 0.25 9.62787C0.25 10.5659 1.00375 11.3231 1.9375 11.3231H7.5625C8.49625 11.3231 9.25 10.5659 9.25 9.62787Z" stroke="white" stroke-width="0.5" stroke-linecap="round" stroke-linejoin="round"/>
<path d="M7.5625 4.54236H9.25V2.84711C9.25 1.90907 8.49625 1.15186 7.5625 1.15186C6.62875 1.15186 5.875 1.90907 5.875 2.84711C5.875 3.78515 6.62875 4.54236 7.5625 4.54236Z" stroke="white" stroke-width="0.5" stroke-linecap="round" stroke-linejoin="round"/>
</svg>
