<svg width="174" height="71" viewBox="0 0 174 71" fill="none" xmlns="http://www.w3.org/2000/svg">
<path d="M173.848 44.487V0H36.2439V2.1312H171.663V44.487H173.848Z" fill="url(#paint0_linear)"/>
<path d="M171.664 50.3735V68.8258H113.02V70.957H173.848V50.3735H171.664Z" fill="url(#paint1_linear)"/>
<path d="M29.1902 0H0.115234V20.2935H2.30319V2.1312H29.1902V0Z" fill="url(#paint2_linear)"/>
<path d="M65.6203 13.9795H63.0683C62.4451 13.987 61.8496 14.2319 61.4089 14.6619C60.9682 15.0919 60.7172 15.673 60.7095 16.2811V29.3945C60.7172 30.0025 60.9682 30.5836 61.4089 31.0136C61.8496 31.4436 62.4451 31.6885 63.0683 31.696H65.6203C66.2432 31.6876 66.8382 31.4424 67.2787 31.0126C67.7192 30.5828 67.9705 30.0022 67.9791 29.3945V16.2811C67.9705 15.6733 67.7192 15.0927 67.2787 14.6629C66.8382 14.2331 66.2432 13.9879 65.6203 13.9795ZM65.9509 29.717H62.7377V15.944H65.9509V29.717Z" fill="url(#paint3_linear)"/>
<path d="M86.8197 31.696V13.9795H79.55V31.696H81.5783V15.9621H84.7915V31.696H86.8197Z" fill="url(#paint4_linear)"/>
<path d="M95.9953 13.9795H93.4433C92.8201 13.987 92.2246 14.2319 91.7839 14.6619C91.3432 15.0919 91.0922 15.673 91.0845 16.2811V29.3945C91.0922 30.0025 91.3432 30.5836 91.7839 31.0136C92.2246 31.4436 92.8201 31.6885 93.4433 31.696H95.9953C96.6182 31.6876 97.2132 31.4424 97.6537 31.0126C98.0942 30.5828 98.3455 30.0022 98.3541 29.3945V16.2811C98.3455 15.6733 98.0942 15.0927 97.6537 14.6629C97.2132 14.2331 96.6182 13.9879 95.9953 13.9795ZM96.3259 29.717H93.1127V15.944H96.3259V29.717Z" fill="url(#paint5_linear)"/>
<path d="M113.525 29.3945C113.534 30.0029 113.785 30.5839 114.227 31.0138C114.668 31.4437 115.264 31.6885 115.887 31.696H118.439C119.062 31.6876 119.657 31.4424 120.098 31.0126C120.538 30.5828 120.79 30.0022 120.798 29.3945V16.2811C120.79 15.6733 120.538 15.0927 120.098 14.6629C119.657 14.2331 119.062 13.9879 118.439 13.9795H115.902C115.279 13.987 114.683 14.2318 114.242 14.6617C113.8 15.0916 113.548 15.6727 113.54 16.2811L113.525 29.3945ZM115.557 15.9621H118.766V29.7352H115.557V15.9621Z" fill="url(#paint6_linear)"/>
<path d="M129.896 31.696H131.679L129.19 13.9795H127.072L124.583 31.696H126.367L128.131 19.1408L129.896 31.696Z" fill="url(#paint7_linear)"/>
<path d="M140.208 22.7508L142.775 13.9795H140.773L138.273 22.8377L138.288 22.8849L140.773 31.696H142.775L140.182 22.8377L140.208 22.7508Z" fill="url(#paint8_linear)"/>
<path d="M137.641 13.9795H135.609V31.696H137.641V13.9795Z" fill="url(#paint9_linear)"/>
<path d="M148.848 31.696H153.759V16.2811C153.75 15.6733 153.499 15.0927 153.058 14.6629C152.618 14.2331 152.023 13.9879 151.4 13.9795H148.848C148.225 13.987 147.629 14.2319 147.189 14.6619C146.748 15.0919 146.497 15.673 146.489 16.2811V18.5826H148.517V15.9621H151.731V22.0295H148.848C147.567 22.0295 146.489 22.8196 146.489 23.7548V29.3945C146.497 30.0025 146.748 30.5836 147.189 31.0136C147.629 31.4436 148.225 31.6885 148.848 31.696ZM148.517 23.4358H151.731V29.717H148.517V23.4358Z" fill="url(#paint10_linear)"/>
<path d="M24.9331 39.3403H22.3811C21.7578 39.3479 21.1623 39.5928 20.7216 40.0228C20.2809 40.4528 20.0299 41.0338 20.0222 41.6419V54.7553C20.0309 55.3631 20.2822 55.9436 20.7227 56.3734C21.1632 56.8032 21.7581 57.0484 22.3811 57.0568H24.9331C25.5566 57.0493 26.1525 56.8046 26.5938 56.3746C27.0351 55.9447 27.2869 55.3637 27.2956 54.7553V41.6419C27.2879 41.0332 27.0364 40.4516 26.5949 40.0215C26.1534 39.5914 25.5569 39.3469 24.9331 39.3403ZM25.2637 55.0742H22.0542V41.3193H25.2637V55.0742Z" fill="url(#paint11_linear)"/>
<path d="M56.4558 57.0568V39.3403H49.1824V57.0568H51.2143V41.3193H54.4238V57.0568H56.4558Z" fill="url(#paint12_linear)"/>
<path d="M68.1531 41.6419C68.1453 41.0332 67.8938 40.4516 67.4523 40.0215C67.0108 39.5914 66.4144 39.3469 65.7905 39.3403H63.2385C62.6153 39.3479 62.0198 39.5928 61.5791 40.0228C61.1383 40.4528 60.8873 41.0338 60.8796 41.6419V54.7553C60.8883 55.3631 61.1396 55.9436 61.5801 56.3734C62.0206 56.8032 62.6156 57.0484 63.2385 57.0568H65.7905C66.4141 57.0493 67.01 56.8046 67.4513 56.3746C67.8926 55.9447 68.1444 55.3637 68.1531 54.7553V41.6419ZM66.1248 55.0742H62.9153V41.3193H66.1248V55.0742Z" fill="url(#paint13_linear)"/>
<path d="M77.251 57.0568H79.0341L76.5415 39.3403H74.4278L71.939 57.0568H73.7183L75.4865 44.5016L77.251 57.0568Z" fill="url(#paint14_linear)"/>
<path d="M85.1782 57.0568H90.089V41.6419C90.0823 41.0335 89.8316 40.4519 89.3906 40.0217C88.9497 39.5915 88.3537 39.3469 87.7302 39.3403H85.1782C84.555 39.3479 83.9595 39.5928 83.5187 40.0228C83.078 40.4528 82.827 41.0338 82.8193 41.6419V43.9543H84.8476V41.3302H88.0608V47.4012H85.1782C83.9003 47.4012 82.8193 48.1913 82.8193 49.1265V54.7553C82.828 55.3631 83.0793 55.9436 83.5198 56.3734C83.9603 56.8032 84.5553 57.0484 85.1782 57.0568ZM84.8476 48.7966H88.0608V55.0742H84.8476V48.7966Z" fill="url(#paint15_linear)"/>
<path d="M55.7466 31.696H57.5222V29.717H56.0958L53.867 13.9795H51.7533L49.5245 29.717H48.0906V31.696H55.7206H55.7466ZM51.3298 29.7352L52.8157 19.1408L54.3016 29.7352H51.3298Z" fill="url(#paint16_linear)"/>
<path d="M102.236 13.9795V15.9621H104.926L104.922 31.696H104.926V68.8652L35.9435 68.8362V56.8137H35.9398L35.8952 53.6061V41.319H38.5846V39.3401H31.1775V41.319H33.8633V57.0566H33.867V68.8362H32.2882H30.1003L2.18796 68.8253V31.3734H23.0237V29.2386H0V70.9565L104.926 71H106.961V31.696V26.4296V15.9621H109.643V13.9795H102.236Z" fill="url(#paint17_linear)"/>
<defs>
<linearGradient id="paint0_linear" x1="105.046" y1="0" x2="105.046" y2="44.487" gradientUnits="userSpaceOnUse">
<stop stop-color="#7E7EDB"/>
<stop offset="1" stop-color="#7F96D8"/>
</linearGradient>
<linearGradient id="paint1_linear" x1="143.434" y1="50.3735" x2="143.434" y2="70.957" gradientUnits="userSpaceOnUse">
<stop stop-color="#7E7EDB"/>
<stop offset="1" stop-color="#7F96D8"/>
</linearGradient>
<linearGradient id="paint2_linear" x1="14.6527" y1="0" x2="14.6527" y2="20.2935" gradientUnits="userSpaceOnUse">
<stop stop-color="#7E7EDB"/>
<stop offset="1" stop-color="#7F96D8"/>
</linearGradient>
<linearGradient id="paint3_linear" x1="64.3443" y1="13.9795" x2="64.3443" y2="31.696" gradientUnits="userSpaceOnUse">
<stop stop-color="#7E7EDB"/>
<stop offset="1" stop-color="#7F96D8"/>
</linearGradient>
<linearGradient id="paint4_linear" x1="83.1849" y1="13.9795" x2="83.1849" y2="31.696" gradientUnits="userSpaceOnUse">
<stop stop-color="#7E7EDB"/>
<stop offset="1" stop-color="#7F96D8"/>
</linearGradient>
<linearGradient id="paint5_linear" x1="94.7193" y1="13.9795" x2="94.7193" y2="31.696" gradientUnits="userSpaceOnUse">
<stop stop-color="#7E7EDB"/>
<stop offset="1" stop-color="#7F96D8"/>
</linearGradient>
<linearGradient id="paint6_linear" x1="117.162" y1="13.9795" x2="117.162" y2="31.696" gradientUnits="userSpaceOnUse">
<stop stop-color="#7E7EDB"/>
<stop offset="1" stop-color="#7F96D8"/>
</linearGradient>
<linearGradient id="paint7_linear" x1="128.131" y1="13.9795" x2="128.131" y2="31.696" gradientUnits="userSpaceOnUse">
<stop stop-color="#7E7EDB"/>
<stop offset="1" stop-color="#7F96D8"/>
</linearGradient>
<linearGradient id="paint8_linear" x1="140.524" y1="13.9795" x2="140.524" y2="31.696" gradientUnits="userSpaceOnUse">
<stop stop-color="#7E7EDB"/>
<stop offset="1" stop-color="#7F96D8"/>
</linearGradient>
<linearGradient id="paint9_linear" x1="136.625" y1="13.9795" x2="136.625" y2="31.696" gradientUnits="userSpaceOnUse">
<stop stop-color="#7E7EDB"/>
<stop offset="1" stop-color="#7F96D8"/>
</linearGradient>
<linearGradient id="paint10_linear" x1="150.124" y1="13.9795" x2="150.124" y2="31.696" gradientUnits="userSpaceOnUse">
<stop stop-color="#7E7EDB"/>
<stop offset="1" stop-color="#7F96D8"/>
</linearGradient>
<linearGradient id="paint11_linear" x1="23.6589" y1="39.3403" x2="23.6589" y2="57.0568" gradientUnits="userSpaceOnUse">
<stop stop-color="#7E7EDB"/>
<stop offset="1" stop-color="#7F96D8"/>
</linearGradient>
<linearGradient id="paint12_linear" x1="52.8191" y1="39.3403" x2="52.8191" y2="57.0568" gradientUnits="userSpaceOnUse">
<stop stop-color="#7E7EDB"/>
<stop offset="1" stop-color="#7F96D8"/>
</linearGradient>
<linearGradient id="paint13_linear" x1="64.5163" y1="39.3403" x2="64.5163" y2="57.0568" gradientUnits="userSpaceOnUse">
<stop stop-color="#7E7EDB"/>
<stop offset="1" stop-color="#7F96D8"/>
</linearGradient>
<linearGradient id="paint14_linear" x1="75.4865" y1="39.3403" x2="75.4865" y2="57.0568" gradientUnits="userSpaceOnUse">
<stop stop-color="#7E7EDB"/>
<stop offset="1" stop-color="#7F96D8"/>
</linearGradient>
<linearGradient id="paint15_linear" x1="86.4542" y1="39.3403" x2="86.4542" y2="57.0568" gradientUnits="userSpaceOnUse">
<stop stop-color="#7E7EDB"/>
<stop offset="1" stop-color="#7F96D8"/>
</linearGradient>
<linearGradient id="paint16_linear" x1="52.8064" y1="13.9795" x2="52.8064" y2="31.696" gradientUnits="userSpaceOnUse">
<stop stop-color="#7E7EDB"/>
<stop offset="1" stop-color="#7F96D8"/>
</linearGradient>
<linearGradient id="paint17_linear" x1="54.8216" y1="13.9795" x2="54.8216" y2="71" gradientUnits="userSpaceOnUse">
<stop stop-color="#7E7EDB"/>
<stop offset="1" stop-color="#7F96D8"/>
</linearGradient>
</defs>
</svg>
