<svg width="177" height="73" viewBox="0 0 177 73" fill="none" xmlns="http://www.w3.org/2000/svg">
<path d="M176.231 45.3502V0.491455H37.4774V2.64046H174.028V45.3502H176.231Z" fill="white"/>
<path d="M174.029 51.2856V69.8921H114.894V72.0411H176.231V51.2856H174.029Z" fill="white"/>
<path d="M30.3644 0.491455H1.04651V20.9545H3.25275V2.64046H30.3644V0.491455Z" fill="white"/>
<path d="M67.0989 14.5878H64.5256C63.8972 14.5954 63.2967 14.8423 62.8523 15.2759C62.4079 15.7095 62.1548 16.2954 62.147 16.9086V30.1315C62.1548 30.7447 62.4079 31.3306 62.8523 31.7642C63.2967 32.1978 63.8972 32.4447 64.5256 32.4523H67.0989C67.727 32.4438 68.327 32.1966 68.7711 31.7632C69.2153 31.3298 69.4687 30.7444 69.4774 30.1315V16.9086C69.4687 16.2957 69.2153 15.7103 68.7711 15.2769C68.327 14.8435 67.727 14.5963 67.0989 14.5878ZM67.4323 30.4568H64.1922V16.5687H67.4323V30.4568Z" fill="white"/>
<path d="M88.4757 32.4523V14.5878H81.1453V32.4523H83.1904V16.5869H86.4305V32.4523H88.4757Z" fill="white"/>
<path d="M97.7279 14.5878H95.1545C94.5261 14.5954 93.9256 14.8423 93.4813 15.2759C93.0369 15.7095 92.7838 16.2954 92.776 16.9086V30.1315C92.7838 30.7447 93.0369 31.3306 93.4813 31.7642C93.9256 32.1978 94.5261 32.4447 95.1545 32.4523H97.7279C98.356 32.4438 98.9559 32.1966 99.4001 31.7632C99.8443 31.3298 100.098 30.7444 100.106 30.1315V16.9086C100.098 16.2957 99.8443 15.7103 99.4001 15.2769C98.9559 14.8435 98.356 14.5963 97.7279 14.5878ZM98.0612 30.4568H94.8212V16.5687H98.0612V30.4568Z" fill="white"/>
<path d="M115.404 30.1315C115.413 30.745 115.667 31.3309 116.112 31.7644C116.557 32.1979 117.157 32.4447 117.786 32.4523H120.36C120.988 32.4438 121.588 32.1966 122.032 31.7632C122.476 31.3298 122.729 30.7444 122.738 30.1315V16.9086C122.729 16.2957 122.476 15.7103 122.032 15.2769C121.588 14.8435 120.988 14.5963 120.36 14.5878H117.801C117.172 14.5953 116.572 14.8422 116.127 15.2757C115.682 15.7092 115.428 16.2951 115.419 16.9086L115.404 30.1315ZM117.453 16.5869H120.689V30.4751H117.453V16.5869Z" fill="white"/>
<path d="M131.911 32.4523H133.709L131.2 14.5878H129.064L126.555 32.4523H128.353L130.132 19.7922L131.911 32.4523Z" fill="white"/>
<path d="M142.309 23.4323L144.898 14.5878H142.879L140.358 23.52L140.373 23.5676L142.879 32.4523H144.898L142.283 23.52L142.309 23.4323Z" fill="white"/>
<path d="M139.721 14.5878H137.672V32.4523H139.721V14.5878Z" fill="white"/>
<path d="M151.022 32.4523H155.974V16.9086C155.965 16.2957 155.712 15.7103 155.268 15.2769C154.824 14.8435 154.224 14.5963 153.595 14.5878H151.022C150.394 14.5954 149.793 14.8423 149.349 15.2759C148.904 15.7095 148.651 16.2954 148.644 16.9086V19.2293H150.689V16.5869H153.929V22.705H151.022C149.73 22.705 148.644 23.5018 148.644 24.4447V30.1315C148.651 30.7447 148.904 31.3306 149.349 31.7642C149.793 32.1978 150.394 32.4447 151.022 32.4523ZM150.689 24.1231H153.929V30.4568H150.689V24.1231Z" fill="white"/>
<path d="M26.0717 40.1604H23.4984C22.87 40.168 22.2695 40.4149 21.8251 40.8485C21.3807 41.2821 21.1276 41.868 21.1199 42.4812V55.7041C21.1286 56.317 21.382 56.9024 21.8262 57.3358C22.2704 57.7692 22.8703 58.0164 23.4984 58.0249H26.0717C26.7005 58.0174 27.3014 57.7705 27.7464 57.337C28.1914 56.9035 28.4453 56.3176 28.454 55.7041V42.4812C28.4462 41.8674 28.1926 41.281 27.7474 40.8473C27.3023 40.4136 26.7008 40.167 26.0717 40.1604ZM26.4051 56.0258H23.1688V42.1559H26.4051V56.0258Z" fill="white"/>
<path d="M57.8578 58.0249V40.1604H50.5236V58.0249H52.5725V42.1559H55.8089V58.0249H57.8578Z" fill="white"/>
<path d="M69.6533 42.4812C69.6455 41.8674 69.3919 41.281 68.9467 40.8473C68.5015 40.4136 67.9001 40.167 67.271 40.1604H64.6976C64.0692 40.168 63.4687 40.4149 63.0243 40.8485C62.58 41.2821 62.3269 41.868 62.3191 42.4812V55.7041C62.3278 56.317 62.5812 56.9024 63.0254 57.3358C63.4696 57.7692 64.0695 58.0164 64.6976 58.0249H67.271C67.8998 58.0174 68.5006 57.7705 68.9456 57.337C69.3906 56.9035 69.6445 56.3176 69.6533 55.7041V42.4812ZM67.6081 56.0258H64.3718V42.1559H67.6081V56.0258Z" fill="white"/>
<path d="M78.8268 58.0249H80.6247L78.1113 40.1604H75.98L73.4703 58.0249H75.2646L77.0475 45.3648L78.8268 58.0249Z" fill="white"/>
<path d="M86.8202 58.0249H91.7721V42.4812C91.7652 41.8677 91.5125 41.2813 91.0679 40.8475C90.6233 40.4137 90.0222 40.1671 89.3935 40.1604H86.8202C86.1918 40.168 85.5913 40.4149 85.1469 40.8485C84.7025 41.2821 84.4494 41.868 84.4417 42.4812V44.8129H86.4868V42.1669H89.7269V48.2886H86.8202C85.5317 48.2886 84.4417 49.0854 84.4417 50.0283V55.7041C84.4504 56.317 84.7038 56.9024 85.148 57.3358C85.5921 57.7692 86.1921 58.0164 86.8202 58.0249ZM86.4868 49.6957H89.7269V56.0258H86.4868V49.6957Z" fill="white"/>
<path d="M57.1427 32.4523H58.9332V30.4568H57.4948L55.2474 14.5878H53.116L50.8686 30.4568H49.4227V32.4523H57.1165H57.1427ZM52.689 30.4751L54.1873 19.7922L55.6856 30.4751H52.689Z" fill="white"/>
<path d="M104.021 14.5878V16.5869H106.733L106.729 32.4523H106.733V69.932L37.1741 69.9028V57.7799H37.1704L37.1254 54.5454V42.1557H39.8373V40.1602H32.3683V42.1557H35.0765V58.0248H35.0802V69.9028H33.4883H31.2821L3.13654 69.8918V32.127H24.1464V29.9744H0.930298V72.0408L106.733 72.0847H108.785V32.4523V27.1419V16.5869H111.49V14.5878H104.021Z" fill="white"/>
</svg>
