<svg width="15" height="15" viewBox="0 0 15 15" fill="none" xmlns="http://www.w3.org/2000/svg">
<path d="M10.0841 1.68142L10.0841 5.08826L13.5781 5.08826" stroke="white" stroke-linecap="round" stroke-linejoin="round"/>
<path d="M14.2771 1.00005L10.0843 5.08826" stroke="white" stroke-linecap="round" stroke-linejoin="round"/>
<path d="M13.5779 10.8637V12.71C13.5786 12.8814 13.5425 13.051 13.472 13.2081C13.4014 13.3651 13.2979 13.5061 13.1681 13.622C13.0384 13.7378 12.8851 13.826 12.7183 13.881C12.5514 13.9359 12.3746 13.9563 12.1992 13.9408C10.2531 13.7351 8.38373 13.0879 6.7413 12.0514C5.21324 11.1065 3.9177 9.84582 2.9467 8.35882C1.87788 6.75327 1.21273 4.9253 1.00513 3.02299C0.989329 2.8528 1.01011 2.68127 1.06616 2.51933C1.12221 2.35738 1.2123 2.20857 1.33069 2.08237C1.44908 1.95616 1.59317 1.85532 1.7538 1.78628C1.91443 1.71724 2.08807 1.6815 2.26368 1.68133H4.16098C4.4679 1.67839 4.76545 1.78416 4.99817 1.97892C5.23088 2.17368 5.38289 2.44414 5.42584 2.73989C5.50592 3.33075 5.65444 3.91089 5.86855 4.46926C5.95364 4.68954 5.97205 4.92894 5.92161 5.15909C5.87117 5.38925 5.75399 5.6005 5.58395 5.76783L4.78076 6.54944C5.68107 8.09021 6.99204 9.36595 8.57536 10.2421L9.37855 9.46046C9.5505 9.29499 9.7676 9.18095 10.0041 9.13187C10.2406 9.08278 10.4866 9.10071 10.713 9.18351C11.2868 9.39186 11.8829 9.53639 12.4901 9.61431C12.7973 9.65649 13.0779 9.80707 13.2785 10.0374C13.479 10.2678 13.5856 10.5618 13.5779 10.8637Z" stroke="white" stroke-linecap="round" stroke-linejoin="round"/>
</svg>
