<svg width="13" height="13" viewBox="0 0 13 13" fill="none" xmlns="http://www.w3.org/2000/svg">
<path d="M12.9822 4.69067C12.9395 4.55993 12.8274 4.46654 12.6913 4.4452L8.63569 3.86887L6.81065 0.200114C6.74928 0.0773774 6.62388 0 6.4878 0C6.35172 0 6.22632 0.0773774 6.16495 0.202782L4.36392 3.88221L0.30828 4.48522C0.172203 4.50657 0.0601392 4.59995 0.0174482 4.73069C-0.0252428 4.86143 0.0121118 5.00552 0.110835 5.0989L3.05384 7.95119L2.37346 11.9908C2.34944 12.1269 2.40547 12.263 2.51754 12.343C2.57891 12.3884 2.65362 12.4124 2.72832 12.4124C2.78702 12.4124 2.84306 12.3991 2.89642 12.3697L6.51715 10.4513L10.1486 12.3484C10.2019 12.375 10.2579 12.3884 10.314 12.3884C10.5114 12.3884 10.6742 12.2256 10.6742 12.0282C10.6742 11.9988 10.6715 11.9722 10.6635 11.9455L9.96178 7.92985L12.8861 5.06155C12.9902 4.96549 13.0249 4.82141 12.9822 4.69067ZM9.32675 7.5483C9.24137 7.63101 9.20401 7.75108 9.22536 7.86848L9.83637 11.3718L6.68258 9.72554C6.57852 9.66951 6.45311 9.67217 6.34639 9.72554L3.20326 11.3905L3.79293 7.88182C3.81161 7.76442 3.77425 7.64702 3.68887 7.56431L1.13809 5.08823L4.65742 4.56527C4.77482 4.54659 4.87621 4.47455 4.92691 4.36782L6.49047 1.174L8.07537 4.35982C8.12873 4.46654 8.23012 4.53858 8.34752 4.55726L11.8695 5.05888L9.32675 7.5483Z" fill="#7E7DDB"/>
</svg>
