<svg width="30" height="32" viewBox="0 0 30 32" fill="none" xmlns="http://www.w3.org/2000/svg">
<path fill-rule="evenodd" clip-rule="evenodd" d="M15 0.627808C6.7175 0.627808 0 7.44416 0 15.8542C0 24.263 6.7175 31.0806 15 31.0806C23.2837 31.0806 30 24.263 30 15.8542C30 7.44416 23.2837 0.627808 15 0.627808ZM19.03 23.3037C19.265 23.4725 19.5675 23.5144 19.8375 23.4116C20.1062 23.3075 20.305 23.0728 20.365 22.7886C20.9988 19.7661 22.5362 12.1149 23.1125 9.3665C23.1562 9.1584 23.0838 8.9427 22.9238 8.80439C22.7625 8.66608 22.54 8.62675 22.3425 8.70034C19.285 9.84994 9.86875 13.4358 6.02 14.881C5.77625 14.9736 5.6175 15.2109 5.625 15.4736C5.63375 15.7349 5.8075 15.9621 6.0575 16.0382C7.78375 16.5622 10.0487 17.2918 10.0487 17.2918C10.0487 17.2918 11.1075 20.5376 11.6587 22.1871C11.7287 22.3952 11.8888 22.5576 12.0988 22.6135C12.31 22.6693 12.5337 22.6109 12.6912 22.4599C13.5775 21.6111 14.9475 20.2978 14.9475 20.2978C14.9475 20.2978 17.5525 22.2354 19.03 23.3037ZM11.0012 16.8807L12.2262 20.9804L12.4987 18.3843C12.4987 18.3843 17.2275 14.0537 19.925 11.5857C20.0037 11.5134 20.0138 11.3916 19.9487 11.3066C19.8837 11.2216 19.7638 11.2013 19.675 11.2596C16.55 13.2848 11.0012 16.8807 11.0012 16.8807Z" fill="#444444"/>
</svg>
