<svg width="27" height="27" viewBox="0 0 27 27" fill="none" xmlns="http://www.w3.org/2000/svg">
<path fill-rule="evenodd" clip-rule="evenodd" d="M13.5 0C6.04575 0 0 6.0435 0 13.5C0 20.9554 6.04575 27 13.5 27C20.9554 27 27 20.9554 27 13.5C27 6.0435 20.9554 0 13.5 0ZM17.127 20.1049C17.3385 20.2545 17.6107 20.2916 17.8537 20.2005C18.0956 20.1082 18.2745 19.9001 18.3285 19.6481C18.8989 16.9684 20.2826 10.1846 20.8012 7.74788C20.8406 7.56337 20.7754 7.37212 20.6314 7.2495C20.4863 7.12687 20.286 7.092 20.1082 7.15725C17.3565 8.1765 8.88188 11.3558 5.418 12.6371C5.19863 12.7192 5.05575 12.9296 5.0625 13.1625C5.07037 13.3942 5.22675 13.5956 5.45175 13.6631C7.00538 14.1278 9.04387 14.7746 9.04387 14.7746C9.04387 14.7746 9.99675 17.6524 10.4929 19.1149C10.5559 19.2994 10.6999 19.4434 10.8889 19.4929C11.079 19.5424 11.2804 19.4906 11.4221 19.3567C12.2197 18.6041 13.4528 17.4398 13.4528 17.4398C13.4528 17.4398 15.7972 19.1576 17.127 20.1049ZM9.90112 14.4101L11.0036 18.045L11.2489 15.7432C11.2489 15.7432 15.5047 11.9036 17.9325 9.7155C18.0034 9.65137 18.0124 9.54338 17.9539 9.468C17.8954 9.39262 17.7874 9.37462 17.7075 9.42637C14.895 11.2219 9.90112 14.4101 9.90112 14.4101Z" fill="#7F96D8"/>
</svg>
