<svg width="27" height="27" viewBox="0 0 27 27" fill="none" xmlns="http://www.w3.org/2000/svg">
<path d="M13.5349 6.9435C9.95625 6.9435 7.047 9.85275 7.04588 13.4303C7.04475 14.8905 7.47338 15.984 8.19225 17.1281L7.5375 19.5221L9.99225 18.8775C11.0925 19.53 12.1421 19.9215 13.5304 19.9226C17.1056 19.9226 20.0182 17.0122 20.0194 13.4359C20.0205 9.8505 17.1225 6.94463 13.5349 6.9435ZM17.3509 16.218C17.1889 16.6736 16.4093 17.0888 16.0346 17.145C15.6983 17.1956 15.273 17.2159 14.8061 17.0674C14.5226 16.9774 14.1593 16.857 13.6946 16.6567C11.7383 15.8119 10.4614 13.842 10.3635 13.7126C10.2656 13.5821 9.567 12.6551 9.567 11.6955C9.567 10.7359 10.071 10.2634 10.2499 10.0687C10.4288 9.87412 10.6391 9.82463 10.7696 9.82463L11.1431 9.83138C11.2624 9.837 11.4232 9.78638 11.5819 10.1666C11.7439 10.557 12.1343 11.5166 12.1826 11.6145C12.231 11.7124 12.2636 11.826 12.1984 11.9565C12.1331 12.087 12.1005 12.168 12.0037 12.2816L11.7113 12.6236C11.6134 12.7204 11.5121 12.8261 11.6257 13.0219C11.7394 13.2176 12.1309 13.8555 12.7103 14.373C13.455 15.0379 14.0839 15.2437 14.2785 15.3405C14.4731 15.4372 14.5867 15.4215 14.7015 15.2921C14.8151 15.1616 15.1886 14.7229 15.3191 14.5271C15.4496 14.3325 15.579 14.364 15.7579 14.4293C15.9368 14.4945 16.8952 14.9659 17.0899 15.0638C17.2845 15.1616 17.415 15.21 17.4634 15.291C17.514 15.372 17.514 15.7624 17.3509 16.218ZM13.5 0C6.04463 0 0 6.04463 0 13.5C0 20.9554 6.04463 27 13.5 27C20.9554 27 27 20.9554 27 13.5C27 6.04463 20.9554 0 13.5 0ZM13.5326 21.24C12.2265 21.24 10.9395 20.9115 9.79988 20.2905L5.66325 21.375L6.77025 17.3306C6.08738 16.1471 5.72737 14.8039 5.7285 13.4291C5.72962 9.126 9.23063 5.625 13.5326 5.625C15.6206 5.62613 17.5804 6.43837 19.053 7.91325C20.5268 9.38812 21.3379 11.349 21.3368 13.4348C21.3356 17.7379 17.8346 21.24 13.5326 21.24Z" fill="#7F96D8"/>
</svg>
