<svg width="30" height="32" viewBox="0 0 30 32" fill="none" xmlns="http://www.w3.org/2000/svg">
<path d="M15.0387 8.45926C11.0625 8.45926 7.83 11.7405 7.82875 15.7755C7.8275 17.4225 8.30375 18.6559 9.1025 19.9463L8.375 22.6465L11.1025 21.9194C12.325 22.6553 13.4913 23.0969 15.0338 23.0982C19.0063 23.0982 22.2425 19.8156 22.2437 15.7819C22.245 11.738 19.025 8.46053 15.0387 8.45926ZM19.2788 18.9198C19.0988 19.4337 18.2325 19.9019 17.8162 19.9653C17.4425 20.0224 16.97 20.0453 16.4513 19.8778C16.1362 19.7763 15.7325 19.6405 15.2163 19.4147C13.0425 18.4617 11.6237 16.24 11.515 16.094C11.4062 15.9468 10.63 14.9013 10.63 13.819C10.63 12.7366 11.19 12.2037 11.3888 11.9842C11.5875 11.7647 11.8212 11.7088 11.9662 11.7088L12.3812 11.7164C12.5138 11.7228 12.6925 11.6657 12.8687 12.0946C13.0487 12.5349 13.4825 13.6172 13.5363 13.7276C13.59 13.838 13.6263 13.9661 13.5538 14.1133C13.4813 14.2605 13.445 14.3519 13.3375 14.48L13.0125 14.8658C12.9037 14.9749 12.7912 15.0942 12.9175 15.3149C13.0437 15.5357 13.4788 16.2552 14.1225 16.8389C14.95 17.5888 15.6488 17.821 15.865 17.9301C16.0813 18.0392 16.2075 18.0214 16.335 17.8755C16.4613 17.7283 16.8762 17.2335 17.0212 17.0127C17.1663 16.7932 17.31 16.8287 17.5088 16.9023C17.7075 16.9759 18.7725 17.5076 18.9888 17.6179C19.205 17.7283 19.35 17.7829 19.4037 17.8743C19.46 17.9656 19.46 18.4059 19.2788 18.9198ZM15 0.627808C6.71625 0.627808 0 7.44543 0 15.8542C0 24.263 6.71625 31.0806 15 31.0806C23.2838 31.0806 30 24.263 30 15.8542C30 7.44543 23.2838 0.627808 15 0.627808ZM15.0363 24.584C13.585 24.584 12.155 24.2135 10.8888 23.5131L6.2925 24.7363L7.5225 20.1747C6.76375 18.8399 6.36375 17.3248 6.365 15.7743C6.36625 10.9209 10.2563 6.97215 15.0363 6.97215C17.3563 6.97341 19.5338 7.88954 21.17 9.55302C22.8075 11.2165 23.7087 13.4281 23.7075 15.7806C23.7062 20.634 19.8162 24.584 15.0363 24.584Z" fill="#444444"/>
</svg>
