<svg width="19" height="12" viewBox="0 0 19 12" fill="none" xmlns="http://www.w3.org/2000/svg">
<path d="M0.578557 1.22856L8.13808 5.07803C8.39208 5.20701 8.72067 5.26816 9.05127 5.26816C9.38187 5.26816 9.71046 5.20701 9.96446 5.07803L17.524 1.22856C18.0169 0.97728 18.4825 -0.000134334 17.5784 -0.000134334H0.525136C-0.378982 -0.000134334 0.0866841 0.97728 0.578557 1.22856ZM17.7528 3.33339L9.96446 7.18095C9.62176 7.35102 9.38187 7.37108 9.05127 7.37108C8.72067 7.37108 8.48078 7.35102 8.13808 7.18095C7.79538 7.01088 0.94847 3.60856 0.389065 3.33244C-0.00403006 3.13753 1.62889e-06 3.36588 1.62889e-06 3.54168V10.5097C1.62889e-06 10.911 0.570494 11.4651 1.00794 11.4651H17.1349C17.5724 11.4651 18.1429 10.911 18.1429 10.5097V3.54264C18.1429 3.36684 18.1469 3.13848 17.7528 3.33339Z" fill="#FC8E20"/>
</svg>
