<svg width="64" height="64" viewBox="0 0 64 64" fill="none" xmlns="http://www.w3.org/2000/svg">
<path d="M12 34.6666C8.32538 34.6666 5.33337 37.6586 5.33337 41.3332C5.33337 45.0079 8.32538 48 12 48C15.6746 48 18.6666 45.008 18.6666 41.3334C18.6666 37.6587 15.6746 34.6666 12 34.6666ZM12 45.3334C9.79463 45.3334 8 43.5387 8 41.3334C8 39.128 9.79463 37.3334 12 37.3334C14.2054 37.3334 16 39.128 16 41.3334C16 43.5386 14.2054 45.3334 12 45.3334Z" fill="white"/>
<path d="M52 34.6666C48.3254 34.6666 45.3334 37.6586 45.3334 41.3332C45.3334 45.0079 48.3254 48 52 48C55.6746 48 58.6666 45.008 58.6666 41.3334C58.6666 37.6587 55.6746 34.6666 52 34.6666ZM52 45.3334C49.7946 45.3334 48 43.5387 48 41.3334C48 39.128 49.7946 37.3334 52 37.3334C54.2054 37.3334 56 39.128 56 41.3334C56 43.5386 54.2054 45.3334 52 45.3334Z" fill="white"/>
<path d="M56 26.6666H53.744C52.92 26.6666 52.112 26.384 51.4666 25.8666L40.96 17.4613C39.7814 16.52 38.3014 16 36.7946 16H17.52C15.2854 16 13.2134 17.1094 11.9734 18.968L9.704 22.376C9.024 23.392 7.888 24 6.66663 24C2.992 24 0 26.992 0 30.6666V36C0 39.6746 2.992 42.6666 6.66663 42.6666C7.40263 42.6666 8 42.0692 8 41.3332C8 40.5972 7.40263 40 6.66663 40C4.46125 40 2.66663 38.2054 2.66663 36V30.6666C2.66663 28.4612 4.46125 26.6666 6.66663 26.6666C8.784 26.6666 10.7466 25.616 11.9226 23.8533L14.192 20.4479C14.936 19.3332 16.1814 18.6665 17.52 18.6665H36.7946C37.7012 18.6665 38.5866 18.9785 39.296 19.5439L49.8026 27.9465C50.9146 28.8399 52.3172 29.3331 53.7466 29.3331H56C59.912 29.3331 61.3334 33.3197 61.3334 35.9997C61.3334 38.6264 59.3228 39.9997 57.3334 39.9997C56.5974 39.9997 56 40.5971 56 41.3331C56 42.0691 56.5974 42.6665 57.3334 42.6665C61.1334 42.6666 64 39.8 64 36C64 31.4746 61.1974 26.6666 56 26.6666Z" fill="white"/>
<path d="M46.6666 40H17.3334C16.5974 40 16 40.5974 16 41.3334C16 42.0694 16.5974 42.6668 17.3334 42.6668H46.6668C47.4028 42.6668 48.0001 42.0694 48.0001 41.3334C48.0001 40.5974 47.4026 40 46.6666 40Z" fill="white"/>
<path d="M44 26.6666H32V22.6666C32 21.9306 31.4026 21.3333 30.6666 21.3333C29.9306 21.3333 29.3333 21.9306 29.3333 22.6666V28C29.3333 28.736 29.9306 29.3334 30.6666 29.3334H44C44.736 29.3334 45.3334 28.736 45.3334 28C45.3334 27.264 44.736 26.6666 44 26.6666Z" fill="white"/>
<path d="M25.3335 26.6666H16.8241L18.5281 23.264C18.8561 22.6054 18.5895 21.8054 17.9307 21.4746C17.2693 21.1466 16.4721 21.4106 16.1413 22.072L13.4747 27.4054C13.2667 27.816 13.2907 28.3094 13.5333 28.7014C13.776 29.0934 14.2053 29.3334 14.6667 29.3334H25.3333C26.0693 29.3334 26.6667 28.736 26.6667 28C26.6667 27.264 26.0695 26.6666 25.3335 26.6666Z" fill="white"/>
<path d="M36 32H33.3334C32.5974 32 32 32.5974 32 33.3334C32 34.0694 32.5974 34.6668 33.3334 34.6668H36C36.736 34.6668 37.3334 34.0694 37.3334 33.3334C37.3334 32.5974 36.736 32 36 32Z" fill="white"/>
</svg>
