<svg width="64" height="64" viewBox="0 0 64 64" fill="none" xmlns="http://www.w3.org/2000/svg">
<g clip-path="url(#clip0)">
<path d="M19.625 56.6722H16.2084C15.518 56.6722 14.9584 56.1125 14.9584 55.4222C14.9584 54.732 15.5181 54.1722 16.2084 54.1722H19.625C20.3154 54.1722 20.875 54.732 20.875 55.4222C20.875 56.1125 20.3154 56.6722 19.625 56.6722Z" fill="white"/>
<path d="M29.0138 56.6722H25.597C24.9068 56.6722 24.347 56.1125 24.347 55.4222C24.347 54.732 24.9068 54.1722 25.597 54.1722H29.0138C29.7042 54.1722 30.2638 54.732 30.2638 55.4222C30.2638 56.1125 29.7042 56.6722 29.0138 56.6722Z" fill="white"/>
<path d="M38.403 56.6722H34.9862C34.296 56.6722 33.7362 56.1125 33.7362 55.4222C33.7362 54.732 34.296 54.1722 34.9862 54.1722H38.403C39.0932 54.1722 39.653 54.732 39.653 55.4222C39.653 56.1125 39.0932 56.6722 38.403 56.6722Z" fill="white"/>
<path d="M47.7916 56.6722H44.375C43.6848 56.6722 43.125 56.1125 43.125 55.4222C43.125 54.732 43.6848 54.1722 44.375 54.1722H47.7916C48.4819 54.1722 49.0416 54.732 49.0416 55.4222C49.0416 56.1125 48.4819 56.6722 47.7916 56.6722Z" fill="white"/>
<path d="M31.9775 64C31.4484 64 30.967 63.6544 30.7947 63.1546C30.6244 62.6604 30.7901 62.0954 31.2007 61.7712C31.606 61.4514 32.1764 61.4157 32.6197 61.6789C33.0672 61.9445 33.3059 62.4837 33.2026 62.9937C33.0859 63.5707 32.5677 64 31.9775 64Z" fill="white"/>
<path d="M55.2456 64H37.6508C36.9606 64 36.4008 63.4402 36.4008 62.75C36.4008 62.0597 36.9606 61.5 37.6508 61.5H53.9956V49.3445H10.0046V61.5H26.3493C27.0397 61.5 27.5993 62.0597 27.5993 62.75C27.5993 63.4402 27.0397 64 26.3493 64H8.75458C8.06433 64 7.50458 63.4402 7.50458 62.75V48.0945C7.50458 47.4042 8.06433 46.8445 8.75458 46.8445H55.2456C55.9358 46.8445 56.4956 47.4042 56.4956 48.0945V62.75C56.4956 63.4402 55.9358 64 55.2456 64Z" fill="white"/>
<path d="M39.327 21.6785C42.2145 19.4691 44.0801 15.9884 44.0801 12.08C44.0801 5.41913 38.661 0 32 0C25.339 0 19.9199 5.41913 19.9199 12.0801C19.9199 15.9885 21.7855 19.4692 24.673 21.6786C19.1233 22.0044 14.7081 26.6224 14.7081 32.2524V39.7006C14.7081 40.391 15.2679 40.9506 15.9581 40.9506H48.0416C48.7319 40.9506 49.2916 40.391 49.2916 39.7006V32.2524C49.2918 26.6224 44.8766 22.0042 39.327 21.6785ZM22.4199 12.0801C22.4199 6.79763 26.7175 2.5 32 2.5C37.2825 2.5 41.5801 6.79763 41.5801 12.0801C41.5801 17.3626 37.2825 21.6602 32 21.6602C26.7175 21.6602 22.4199 17.3625 22.4199 12.0801ZM46.7918 38.4505H17.2083V32.2523C17.2083 27.7903 20.8384 24.1601 25.3004 24.1601H38.6995C43.1615 24.1601 46.7916 27.7903 46.7916 32.2523V38.4505H46.7918Z" fill="white"/>
</g>
<defs>
<clipPath id="clip0">
<rect width="64" height="64" fill="white"/>
</clipPath>
</defs>
</svg>
