<svg width="64" height="64" viewBox="0 0 64 64" fill="none" xmlns="http://www.w3.org/2000/svg">
<g clip-path="url(#clip0)">
<path d="M33.0721 52.9262H30.2088V50.9283C30.2088 48.232 28.0153 46.0385 25.319 46.0385H9.0035C6.3072 46.0385 4.11365 48.232 4.11365 50.9283V52.9262H1.25031C0.559765 52.9262 0 53.4859 0 54.1765V61.3429C0 62.0335 0.559765 62.5932 1.25031 62.5932H33.0721C33.7626 62.5932 34.3225 62.0335 34.3225 61.3429V54.1765C34.3225 53.4859 33.7626 52.9262 33.0721 52.9262ZM31.8218 60.0926H2.50063V55.4268H11.6445C12.3351 55.4268 12.8948 54.867 12.8948 54.1765C12.8948 53.4859 12.3351 52.9262 11.6445 52.9262H6.61415V50.9283C6.61415 49.6108 7.68592 48.5391 9.00338 48.5391H25.3188C26.6363 48.5391 27.7081 49.6108 27.7081 50.9283V52.9262H22.6434C21.9529 52.9262 21.3931 53.4859 21.3931 54.1765C21.3931 54.867 21.9529 55.4268 22.6434 55.4268H31.8217V60.0926H31.8218Z" fill="white"/>
<path d="M62.4343 47.3549L61.4427 46.3634C60.4527 45.3734 59.303 44.5815 58.0262 44.0098C57.0272 43.5616 56.1274 42.9423 55.3533 42.1705L36.2026 23.0197C37.4931 22.1935 38.9263 21.4544 40.5341 20.7769C42.3589 21.9112 44.7935 21.6226 46.31 20.1061C48.115 18.301 48.1151 15.2889 46.31 13.4839L35.6023 2.77614C33.7764 0.950309 30.8058 0.950559 28.9801 2.77614C27.3942 4.36204 27.1867 6.81152 28.3559 8.62448C27.6804 10.225 26.9439 11.6525 26.1208 12.9381L24.9771 11.7943C23.2761 10.1058 20.4484 10.0937 18.7486 11.7934C17.0313 13.5108 17.0313 16.3053 18.7486 18.0227L19.8895 19.1636C18.6022 19.9863 17.1732 20.7225 15.5706 21.3977C13.7584 20.2339 11.3136 20.4428 9.72988 22.0265C7.90417 23.8523 7.90417 26.8229 9.72988 28.6486L20.4377 39.3564C22.24 41.1586 25.2575 41.1586 27.0598 39.3564C28.574 37.8422 28.8645 35.4123 27.7356 33.5882C28.4128 31.9784 29.1514 30.5432 29.9771 29.2511L49.1249 48.3989C49.8988 49.1729 50.5178 50.0715 50.9653 51.0713C51.5382 52.3472 52.3292 53.4963 53.3178 54.4883L54.3093 55.4799C56.331 57.5016 60.0047 57.5007 62.0263 55.4792L62.4334 55.0722C64.5215 52.9838 64.5226 49.4433 62.4343 47.3549ZM33.5131 21.8345C32.6076 22.5026 31.7549 23.2348 30.9786 24.0111C28.8143 26.1754 27.1626 28.7933 25.8925 31.5666L17.5741 23.2481C20.3475 21.9781 22.9654 20.3264 25.1296 18.162C27.289 16.0027 28.9382 13.3917 30.2071 10.6252L38.5156 18.9336C36.7629 19.7374 35.0666 20.6892 33.5131 21.8345ZM30.7484 4.54446C31.5877 3.705 32.9947 3.70512 33.8342 4.54446L44.5418 15.2521C45.3882 16.0982 45.3753 17.4903 44.5418 18.3379C43.799 19.0807 42.395 19.2489 41.6091 18.4629L30.6779 7.53158C29.871 6.72488 29.9621 5.33065 30.7484 4.54446ZM20.5169 16.2543C19.7745 15.5118 19.7745 14.3039 20.5169 13.5615C21.2489 12.8294 22.4771 12.8304 23.2089 13.5622L24.6346 14.9879C23.8269 15.9701 22.9242 16.8718 21.9413 17.6785L20.5169 16.2543ZM25.2916 37.588C24.4411 38.4388 23.0567 38.4389 22.206 37.588L11.4982 26.8802C10.6475 26.0295 10.6475 24.6452 11.4982 23.7945C12.3374 22.9552 13.7446 22.9551 14.584 23.7945L25.2918 34.5022C26.1322 35.3428 26.1322 36.7475 25.2916 37.588ZM60.6652 53.3036L60.2581 53.7106C59.1992 54.7696 57.1371 54.7709 56.0775 53.7115L55.0875 52.7215C54.3144 51.9458 53.695 51.046 53.247 50.0482C52.6752 48.7706 51.8833 47.6209 50.893 46.6306L31.4619 27.1994C32.2689 26.2165 33.1705 25.3141 34.1524 24.5061L53.5862 43.9399C54.5768 44.9276 55.7262 45.7188 57.0033 46.2916C58.0019 46.7388 58.9005 47.3577 59.6742 48.1315L60.6659 49.123C61.7989 50.2559 61.7985 52.1705 60.6652 53.3036Z" fill="white"/>
<path d="M18.3158 53.6981C18.054 53.0697 17.313 52.76 16.6829 53.0216C16.0542 53.2826 15.7451 54.025 16.0064 54.6546C16.2675 55.2836 17.0094 55.5924 17.6394 55.331C18.2678 55.0702 18.578 54.3276 18.3158 53.6981Z" fill="white"/>
</g>
<defs>
<clipPath id="clip0">
<rect width="64" height="64" fill="white"/>
</clipPath>
</defs>
</svg>
