<svg width="107" height="34" viewBox="0 0 107 34" fill="none" xmlns="http://www.w3.org/2000/svg">
<path d="M20.5283 24.8585H9.20566L6.03019 30.0868H0L15.7491 5.74152H21.2981L27.2642 30.0868H21.6189L20.5283 24.8585ZM19.566 20.5925L17.5132 11.1943L11.7717 20.5925H19.566Z" fill="#00AF68"/>
<path d="M51.8019 5.74146L36.4056 30.0867H30.8887L25.2113 5.74146H31.017L34.9622 23.0943L45.9962 5.74146H51.8019Z" fill="#00AF68"/>
<path d="M105.945 13.9208C104.951 8.14717 100.877 3.11132 95.3604 1.05849C93.468 0.352829 91.4793 0 89.4586 0H60.0133L56.3887 5.74151H78.6812C76.6284 6.89622 74.9284 8.46792 73.6133 10.3283H68.8982L56.517 30.0868H50.8397L63.2529 10.3283H53.4699L38.5227 34H50.9359H97.2529H98.6642C102.321 27.7774 107.26 21.5547 105.945 13.9208ZM84.3265 30.5038C76.917 30.5038 72.4586 26.2057 72.4586 19.9189C72.4586 11.6113 78.5529 5.32453 87.5019 5.32453C94.9114 5.32453 99.3699 9.62264 99.3699 15.9094C99.4019 24.217 93.3076 30.5038 84.3265 30.5038Z" fill="#00AF68"/>
<path d="M87.0529 10.1358C81.568 10.1358 78.2001 14.4981 78.2001 19.6302C78.2001 23.2547 80.5737 25.7245 84.8397 25.7245C90.3246 25.7245 93.6925 21.3622 93.6925 16.2302C93.6925 12.6056 91.3189 10.1358 87.0529 10.1358Z" fill="#00AF68"/>
</svg>
