<svg id="whatsapp" xmlns="http://www.w3.org/2000/svg" width="32.197" height="32.197" viewBox="0 0 32.197 32.197">
  <path id="Path_208" data-name="Path 208" d="M0,32.2l2.769-8.306a15.819,15.819,0,1,1,6.246,5.934Z" fill="#fff"/>
  <path id="Path_209" data-name="Path 209" d="M31.809,25.535c-.731-1.381-3.425-2.959-3.425-2.959-.61-.348-1.345-.386-1.693.233a13.954,13.954,0,0,1-1.1,1.2,2.046,2.046,0,0,1-2.91-.289l-2.21-2.21-2.21-2.21a2.046,2.046,0,0,1-.289-2.91,13.954,13.954,0,0,1,1.2-1.1c.62-.348.581-1.083.233-1.693,0,0-1.579-2.694-2.959-3.425a1.513,1.513,0,0,0-1.778.268l-.976.976c-3.1,3.1-1.572,6.591,1.524,9.687l2.829,2.829,2.829,2.829c3.1,3.1,6.591,4.62,9.687,1.524l.976-.976A1.514,1.514,0,0,0,31.809,25.535Z" transform="translate(-5.339 -4.449)" fill="#2cb742"/>
</svg>
