<svg width="70" height="70" viewBox="0 0 70 70" fill="none" xmlns="http://www.w3.org/2000/svg">
<path d="M61.2783 11.8924C55.7124 5.56435 48.0721 1.45531 39.7649 0.322571C39.2052 0.246201 38.6871 0.639267 38.6108 1.20003C38.5344 1.76132 38.9269 2.27829 39.4882 2.35466C47.3068 3.42064 54.4984 7.28882 59.7386 13.2468C65.0258 19.2587 67.938 26.9838 67.938 35C67.938 43.8013 64.5115 52.0754 58.2892 58.2988C52.0669 64.5222 43.7938 67.9492 34.9947 67.9492C26.195 67.9492 17.9219 64.5222 11.6996 58.2988C5.47729 52.0754 2.05078 43.8013 2.05078 35C2.05078 26.1987 5.47729 17.9246 11.6996 11.7012C17.9219 5.47783 26.195 2.05078 34.9947 2.05078C35.5608 2.05078 36.0201 1.59149 36.0201 1.02539C36.0201 0.45929 35.5608 0 34.9947 0C25.647 0 16.8591 3.64067 10.2496 10.2512C3.64014 16.8618 0 25.6513 0 35C0 44.3487 3.64014 53.1382 10.2496 59.7488C16.8591 66.3593 25.647 70 34.9947 70C44.3417 70 53.1297 66.3593 59.7392 59.7488C66.3486 53.1382 69.9888 44.3487 69.9888 35C69.9888 26.485 66.8955 18.2787 61.2783 11.8924Z" fill="#FC8E20"/>
<path d="M45.1385 48.4433C48.0337 47.5552 50.6345 45.7255 52.4621 43.2912C54.3521 40.7732 55.3513 37.7739 55.3513 34.6171C55.3513 26.6441 48.8657 20.1575 40.8939 20.1575H29.0944C21.1225 20.1575 14.6369 26.6441 14.6369 34.6171C14.6369 40.4239 18.0891 45.6475 23.4312 47.9242C23.7933 48.0785 24.0273 48.4289 24.0273 48.8166V52.2714C24.0273 53.2188 24.604 54.0365 25.4959 54.3553C25.7453 54.4445 26.0006 54.4878 26.2521 54.4878C26.8983 54.4878 27.5195 54.201 27.9515 53.6733L31.4256 49.4313C31.6103 49.2059 31.8827 49.0767 32.1738 49.0767H40.1254C40.692 49.0767 41.1507 48.6179 41.1507 48.0513C41.1507 47.4852 40.692 47.0259 40.1254 47.0259H32.1738C31.2653 47.0259 30.4146 47.4291 29.8389 48.1319L26.3648 52.374C26.3435 52.4007 26.2927 52.4621 26.1854 52.4242C26.078 52.3857 26.078 52.3056 26.078 52.2714V48.8166C26.078 47.6059 25.3544 46.5148 24.235 46.0379C19.6501 44.0838 16.6877 39.6009 16.6877 34.6171C16.6877 27.7747 22.2531 22.2083 29.0944 22.2083H40.8939C47.7346 22.2083 53.3006 27.7747 53.3006 34.6171C53.3006 37.3264 52.4434 39.9 50.822 42.0602C49.2524 44.15 47.0206 45.7207 44.5367 46.4828C43.9957 46.6489 43.6913 47.2224 43.8573 47.7634C44.0234 48.305 44.597 48.6094 45.1385 48.4433Z" fill="#FC8E20"/>
<path d="M24.0614 34.4355C24.0614 36.1381 25.4457 37.5229 27.1478 37.5229C28.8498 37.5229 30.2346 36.1381 30.2346 34.4355C30.2346 32.7334 28.8498 31.3486 27.1478 31.3486C25.4457 31.3486 24.0614 32.7334 24.0614 34.4355ZM28.1838 34.4355C28.1838 35.0069 27.7192 35.4721 27.1478 35.4721C26.5769 35.4721 26.1122 35.0069 26.1122 34.4355C26.1122 33.8646 26.5769 33.3994 27.1478 33.3994C27.7192 33.3994 28.1838 33.8646 28.1838 34.4355Z" fill="#FC8E20"/>
<path d="M31.9078 34.4355C31.9078 36.1381 33.2926 37.5229 34.9947 37.5229C36.6962 37.5229 38.081 36.1381 38.081 34.4355C38.081 32.7334 36.6962 31.3486 34.9947 31.3486C33.2926 31.3486 31.9078 32.7334 31.9078 34.4355ZM36.0302 34.4355C36.0302 35.0069 35.5656 35.4721 34.9947 35.4721C34.4232 35.4721 33.9586 35.0069 33.9586 34.4355C33.9586 33.8646 34.4232 33.3994 34.9947 33.3994C35.5656 33.3994 36.0302 33.8646 36.0302 34.4355Z" fill="#FC8E20"/>
<path d="M45.9273 34.4355C45.9273 32.7334 44.5431 31.3486 42.841 31.3486C41.139 31.3486 39.7542 32.7334 39.7542 34.4355C39.7542 36.1381 41.139 37.5229 42.841 37.5229C44.5431 37.5229 45.9273 36.1381 45.9273 34.4355ZM42.841 35.4721C42.2696 35.4721 41.805 35.0069 41.805 34.4355C41.805 33.8646 42.2696 33.3994 42.841 33.3994C43.4119 33.3994 43.8766 33.8646 43.8766 34.4355C43.8766 35.0069 43.4119 35.4721 42.841 35.4721Z" fill="#FC8E20"/>
</svg>
