<svg width="70" height="70" viewBox="0 0 70 70" fill="none" xmlns="http://www.w3.org/2000/svg">
<path d="M61.4983 11.8502C55.9879 5.54032 48.4112 1.41045 40.1627 0.222703C39.6024 0.142061 39.0828 0.530854 39.0016 1.09108C38.921 1.65131 39.3098 2.17148 39.8705 2.25212C47.6336 3.37044 54.7659 7.25784 59.9538 13.1987C65.1907 19.1967 68.0752 26.8903 68.0752 34.8633C68.0752 43.6646 64.6487 51.9387 58.4264 58.1621C52.2035 64.3854 43.931 67.813 35.1313 67.813C26.4822 67.813 18.3106 64.4859 12.1225 58.4451C11.7172 58.0494 11.0683 58.0574 10.6731 58.4628C10.2773 58.8676 10.2853 59.517 10.6902 59.9122C17.2639 66.3294 25.9439 69.8633 35.1313 69.8633C44.4789 69.8633 53.2668 66.2226 59.8763 59.6115C66.4858 53.0015 70.126 44.212 70.126 34.8633C70.126 26.3942 67.0621 18.2215 61.4983 11.8502Z" fill="#FC8E20"/>
<path d="M2.1869 34.8633C2.1869 26.062 5.61395 17.7879 11.8363 11.5645C18.0586 5.34111 26.3316 1.91353 35.1313 1.91353C35.6974 1.91353 36.1562 1.45477 36.1562 0.888672C36.1562 0.322571 35.6974 -0.136719 35.1313 -0.136719C25.7837 -0.136719 16.9958 3.50395 10.3863 10.1145C3.77679 16.7251 0.136658 25.5146 0.136658 34.8633C0.136658 42.4597 2.5287 49.685 7.05484 55.7588C7.25618 56.0291 7.56486 56.1711 7.87782 56.1711C8.09038 56.1711 8.3056 56.1054 8.48932 55.9682C8.94327 55.6301 9.03726 54.9876 8.69867 54.5337C4.43903 48.8166 2.1869 42.0149 2.1869 34.8633Z" fill="#FC8E20"/>
<path d="M27.4211 29.1777H21.4413C19.8306 29.1777 18.5205 30.4877 18.5205 32.0985V50.0524C18.5205 51.6631 19.8306 52.9732 21.4413 52.9732H27.4211C28.4508 52.9732 29.356 52.4359 29.8762 51.629C29.8911 51.629 29.9056 51.6311 29.9205 51.6311H46.3503C47.9866 51.6311 49.3538 50.4572 49.6011 48.8396C49.7891 47.6091 50.0486 45.906 50.321 44.0854C50.4054 43.5252 50.0192 43.0034 49.459 42.9195C48.8988 42.8357 48.377 43.2213 48.2932 43.7815C48.0208 45.6 47.7623 47.301 47.5743 48.5298C47.4814 49.1386 46.9666 49.5808 46.3503 49.5808H30.3419V32.287L38.9199 23.6102C38.9637 23.5658 39.0032 23.5178 39.0379 23.4665C39.3472 23.0125 40.356 21.4515 40.3731 20.4111C40.3731 20.4058 40.3731 20.3999 40.3731 20.3946V20.1569C40.3731 19.4669 40.8922 18.8955 41.5608 18.8138C42.1638 19.0659 42.9884 19.6549 43.0792 22.5255V22.6649C43.0792 22.7295 43.0744 22.7957 43.0647 22.8625C43.0562 22.9218 43.0525 22.9821 43.0546 23.0419C43.0717 23.5744 43.0856 26.4118 41.6687 29.9569C41.5421 30.2731 41.5806 30.6309 41.7718 30.9123C41.9624 31.1943 42.2802 31.3625 42.6204 31.3625H47.3676C48.6488 31.3625 49.6913 32.4056 49.6913 33.6868C49.6908 33.8512 49.6171 34.733 48.9469 39.3563C48.8657 39.9165 49.2539 40.4367 49.8147 40.5179C50.3755 40.5991 50.8951 40.2108 50.9763 39.6506C51.7421 34.3661 51.7421 33.8902 51.7421 33.6868C51.7421 31.2744 49.7794 29.3123 47.3676 29.3123H44.0816C45.0717 26.2671 45.1251 23.8911 45.1064 23.0606C45.1219 22.9287 45.1294 22.7957 45.1294 22.6649V22.5089C45.1294 22.4988 45.1294 22.4881 45.1294 22.478C45.0322 19.3083 44.0928 17.5625 42.0831 16.8169C41.9689 16.7747 41.8482 16.7529 41.7264 16.7529C39.8497 16.7529 38.3228 18.2803 38.3228 20.1569V20.3786C38.3031 20.6563 37.8684 21.5231 37.3941 22.2371L29.5814 30.1395C29.0463 29.5505 28.2772 29.1777 27.4211 29.1777ZM28.2911 50.0524C28.2911 50.5325 27.9007 50.9229 27.4211 50.9229H21.4413C20.9612 50.9229 20.5708 50.5325 20.5708 50.0524V32.0985C20.5708 31.6183 20.9612 31.228 21.4413 31.228H27.4211C27.9007 31.228 28.2911 31.6183 28.2911 32.0985V50.0524Z" fill="#FC8E20"/>
</svg>
