<svg width="70" height="70" viewBox="0 0 70 70" fill="none" xmlns="http://www.w3.org/2000/svg">
<path d="M59.7392 10.2512C53.1297 3.64067 44.3417 0 34.9947 0C31.0138 0 27.1088 0.663299 23.3869 1.97174C22.8529 2.15919 22.5719 2.74452 22.7599 3.27911C22.9479 3.81317 23.5327 4.09409 24.0673 3.9061C27.5697 2.67509 31.2461 2.05078 34.9947 2.05078C43.7938 2.05078 52.0669 5.47783 58.2892 11.7012C64.5115 17.9246 67.938 26.1993 67.938 35C67.938 43.8007 64.5115 52.0754 58.2892 58.2988C52.0669 64.5222 43.7938 67.9492 34.9947 67.9492C26.195 67.9492 17.9219 64.5222 11.6996 58.2988C5.4773 52.0754 2.05078 43.8013 2.05078 35C2.05078 22.8262 8.72223 11.6889 19.4621 5.93552C19.9615 5.66795 20.1489 5.04631 19.8819 4.5475C19.6143 4.04816 18.9927 3.86017 18.4933 4.12773C7.08641 10.239 0 22.0683 0 35C0 44.3487 3.64014 53.1382 10.2496 59.7488C16.8591 66.3593 25.6471 70 34.9947 70C44.3417 70 53.1297 66.3593 59.7392 59.7488C66.3487 53.1382 69.9888 44.3487 69.9888 35C69.9888 25.6513 66.3487 16.8618 59.7392 10.2512Z" fill="#FC8E20"/>
<path d="M25.4714 17.5427C24.9047 17.5427 24.446 18.0015 24.446 18.5681V19.9647H24.0225C21.1156 19.9647 18.7502 22.33 18.7502 25.2374V47.1851C18.7502 50.0925 21.1156 52.4573 24.0225 52.4573H45.9664C48.8732 52.4573 51.2386 50.0925 51.2386 47.1851V42.261C51.2386 41.6949 50.7793 41.2357 50.2132 41.2357C49.6465 41.2357 49.1878 41.6949 49.1878 42.261V47.1851C49.1878 48.9613 47.7426 50.4065 45.9664 50.4065H24.0225C22.2462 50.4065 20.801 48.9613 20.801 47.1851V29.4378H49.1873V36.8884C49.1873 37.4545 49.6465 37.9138 50.2126 37.9138C50.7793 37.9138 51.238 37.4545 51.238 36.8884V25.2374C51.238 22.33 48.8732 19.9647 45.9664 19.9647H45.5428V18.5681C45.5428 18.0015 45.0841 17.5427 44.5175 17.5427C43.9514 17.5427 43.4921 18.0015 43.4921 18.5681V19.9647H26.4967V18.5681C26.4967 18.0015 26.0375 17.5427 25.4714 17.5427ZM43.4921 22.0155V23.2037C43.4921 23.7698 43.9514 24.2291 44.5175 24.2291C45.0841 24.2291 45.5428 23.7698 45.5428 23.2037V22.0155H45.9664C47.7426 22.0155 49.1878 23.4606 49.1878 25.2374V27.387H20.8016V25.2374C20.8016 23.4606 22.2462 22.0155 24.0225 22.0155H24.446V23.2037C24.446 23.7698 24.9053 24.2291 25.4714 24.2291C26.0375 24.2291 26.4967 23.7698 26.4967 23.2037V22.0155H43.4921Z" fill="#FC8E20"/>
<path d="M39.6399 34.2747L33.1052 40.8111L30.3489 38.0543C29.9483 37.6537 29.2995 37.6537 28.8989 38.0543C28.4984 38.4548 28.4984 39.1037 28.8989 39.5042L32.3799 42.9857C32.5722 43.1785 32.8328 43.2864 33.1052 43.2864C33.377 43.2864 33.6376 43.178 33.8304 42.9857L41.0904 35.7247C41.4909 35.3242 41.4904 34.6747 41.0904 34.2747C40.6893 33.8747 40.0404 33.8747 39.6399 34.2747Z" fill="#FC8E20"/>
</svg>
