<svg width="70" height="70" viewBox="0 0 70 70" fill="none" xmlns="http://www.w3.org/2000/svg">
<path d="M59.7392 10.2512C53.1297 3.64067 44.3417 0 34.9947 0C25.6471 0 16.8591 3.64067 10.2496 10.2512C3.64014 16.8618 0 25.6513 0 35C0 44.0833 3.4639 52.6928 9.75296 59.2419C10.145 59.6505 10.7944 59.6633 11.2024 59.2713C11.6109 58.8793 11.6243 58.2299 11.2318 57.8214C5.3112 51.6562 2.05078 43.5513 2.05078 35C2.05078 26.1987 5.4773 17.9246 11.6996 11.7012C17.9224 5.47836 26.195 2.05078 34.9947 2.05078C43.7938 2.05078 52.0669 5.47783 58.2892 11.7012C64.5115 17.9246 67.938 26.1987 67.938 35C67.938 43.8013 64.5115 52.0754 58.2892 58.2988C52.0663 64.5216 43.7938 67.9492 34.9947 67.9492C27.4271 67.9492 20.3118 65.4541 14.4185 60.7336C13.9763 60.3795 13.3311 60.451 12.9771 60.8927C12.623 61.3349 12.6946 61.9801 13.1362 62.3341C16.1734 64.7668 19.5625 66.6611 23.2107 67.9658C26.9849 69.3153 30.9497 70 34.9947 70C44.3417 70 53.1297 66.3593 59.7392 59.7488C66.3487 53.1382 69.9888 44.3487 69.9888 35C69.9888 25.6513 66.3487 16.8618 59.7392 10.2512Z" fill="#FC8E20"/>
<path d="M34.9946 15.5555C35.5608 15.5555 36.02 15.0967 36.02 14.5301C36.02 13.964 35.5608 13.5047 34.9946 13.5047C23.1439 13.5047 13.5026 23.1477 13.5026 35C13.5026 37.4321 13.9058 39.8177 14.7005 42.0901C15.077 43.1689 15.5469 44.2301 16.0976 45.2459C16.2279 45.4862 16.3635 45.7249 16.5045 45.9615C16.9259 46.6713 17.3916 47.3608 17.8936 48.0198C17.8941 48.0198 17.8941 48.0203 17.8941 48.0203C21.9989 53.4063 28.2313 56.4953 34.9941 56.4953C46.8449 56.4953 56.4862 46.8523 56.4862 35C56.4862 30.0995 54.7938 25.3053 51.7203 21.5006C48.6927 17.7526 44.4523 15.1026 39.7803 14.0398C39.2281 13.9149 38.6786 14.2599 38.5531 14.8121C38.4276 15.3643 38.7731 15.9138 39.3253 16.0399C43.5497 17.0007 47.3853 19.398 50.125 22.7893C52.9048 26.2302 54.4349 30.5668 54.4349 35C54.4349 45.7217 45.7137 54.4445 34.9941 54.4445C29.1825 54.4445 23.8045 51.9211 20.0976 47.4905L27.0415 40.8634L28.9918 42.966C29.9489 43.9989 31.3059 44.6066 32.7164 44.6344C34.1257 44.66 35.5057 44.1035 36.497 43.1123L43.0327 36.6524L44.7919 38.411C45.2865 38.9061 46.0235 39.0524 46.6691 38.7849C47.3154 38.5173 47.733 37.8925 47.733 37.1928V28.2063C47.733 27.065 46.8043 26.1362 45.663 26.1362H36.678C35.9784 26.1362 35.3541 26.5539 35.086 27.1996C34.8184 27.8458 34.9647 28.5828 35.4593 29.0773L37.2089 30.8274L32.9011 35.0721L30.9967 33.0165C30.0402 31.9842 28.7387 31.3924 27.3325 31.3503C25.9242 31.3054 24.5896 31.8181 23.5728 32.789L16.1648 39.8599C15.7584 38.2812 15.5528 36.6529 15.5528 35C15.5534 24.2783 24.2745 15.5555 34.9946 15.5555ZM24.9896 34.2726C25.6059 33.6835 26.415 33.3759 27.2706 33.4C28.124 33.4256 28.9133 33.7845 29.4933 34.4104L32.1161 37.242C32.3046 37.4454 32.5679 37.5635 32.8451 37.5699C33.1212 37.5736 33.3903 37.47 33.5885 37.2751L38.8842 32.0568C39.2137 31.7321 39.3958 31.2984 39.3974 30.8354C39.3996 30.3729 39.2201 29.9382 38.8933 29.6108L37.4695 28.187H45.6635C45.6742 28.187 45.6827 28.1956 45.6827 28.2063V36.4014L44.2531 34.9712C43.5855 34.3036 42.4955 34.3004 41.8236 34.9642L35.0513 41.6581C34.4472 42.2621 33.6088 42.5975 32.7553 42.5836C31.9003 42.5671 31.0768 42.1986 30.4957 41.5721L27.8383 38.7064C27.6519 38.505 27.3918 38.387 27.1178 38.379C26.8444 38.3699 26.5768 38.4724 26.3782 38.6615L18.8576 45.8392C18.0543 44.6461 17.3857 43.3698 16.8639 42.0287L24.9896 34.2726Z" fill="#FC8E20"/>
</svg>
