<svg width="70" height="70" viewBox="0 0 70 70" fill="none" xmlns="http://www.w3.org/2000/svg">
<path d="M59.7391 10.2512C53.1296 3.64067 44.3417 0 34.9947 0C26.8615 0 18.9393 2.8524 12.6865 8.03223C12.2502 8.39378 12.1893 9.03999 12.5509 9.47632C12.9124 9.91264 13.5587 9.97299 13.9944 9.61143C19.8803 4.73602 27.3384 2.05078 34.9947 2.05078C43.7938 2.05078 52.0669 5.47783 58.2892 11.7012C64.5115 17.9246 67.938 26.1987 67.938 35C67.938 43.8013 64.5115 52.0754 58.2892 58.2988C52.0669 64.5216 43.7938 67.9492 34.9947 67.9492C26.195 67.9492 17.9219 64.5222 11.6996 58.2988C5.47729 52.0754 2.05078 43.8013 2.05078 35C2.05078 26.611 5.20439 18.6194 10.9311 12.4964C11.3177 12.0825 11.2959 11.4336 10.8825 11.047C10.4691 10.6598 9.82025 10.6817 9.43306 11.095C3.35014 17.5993 0 26.0887 0 35C0 44.3487 3.64014 53.1382 10.2496 59.7488C16.8591 66.3593 25.647 70 34.9947 70C44.3417 70 53.1296 66.3593 59.7391 59.7488C66.3486 53.1382 69.9888 44.3487 69.9888 35C69.9888 25.6513 66.3486 16.8618 59.7391 10.2512Z" fill="#FC8E20"/>
<path d="M48.8172 39.5459C49.3838 39.5459 49.8426 39.0866 49.8426 38.5205V23.1317C49.8426 21.389 48.4252 19.9711 46.6825 19.9711H23.3063C21.5637 19.9711 20.1463 21.389 20.1463 23.1317V46.8684C20.1463 48.611 21.5637 50.0289 23.3063 50.0289H46.6825C48.4252 50.0289 49.8426 48.611 49.8426 46.8684V43.7084C49.8426 43.1417 49.3838 42.683 48.8172 42.683C48.2511 42.683 47.7918 43.1417 47.7918 43.7084V46.8684C47.7918 47.4804 47.294 47.9781 46.6825 47.9781H23.3063C22.6943 47.9781 22.1971 47.4799 22.1971 46.8684V23.1317C22.1971 22.5196 22.6948 22.0219 23.3063 22.0219H46.6825C47.2946 22.0219 47.7918 22.5196 47.7918 23.1317V38.5205C47.7918 39.0866 48.2511 39.5459 48.8172 39.5459Z" fill="#FC8E20"/>
<path d="M28.3318 26.2916C28.3318 27.0505 27.7165 27.6658 26.9576 27.6658C26.1982 27.6658 25.583 27.0505 25.583 26.2916C25.583 25.5327 26.1982 24.9175 26.9576 24.9175C27.7165 24.9175 28.3318 25.5327 28.3318 26.2916Z" fill="#FC8E20"/>
<path d="M28.3318 35C28.3318 35.7589 27.7165 36.3741 26.9576 36.3741C26.1982 36.3741 25.583 35.7589 25.583 35C25.583 34.2411 26.1982 33.6259 26.9576 33.6259C27.7165 33.6259 28.3318 34.2411 28.3318 35Z" fill="#FC8E20"/>
<path d="M28.3318 43.7083C28.3318 44.4672 27.7165 45.0825 26.9576 45.0825C26.1982 45.0825 25.583 44.4672 25.583 43.7083C25.583 42.9494 26.1982 42.3342 26.9576 42.3342C27.7165 42.3342 28.3318 42.9494 28.3318 43.7083Z" fill="#FC8E20"/>
<path d="M43.1737 25.2663H31.927C31.3609 25.2663 30.9016 25.7256 30.9016 26.2917C30.9016 26.8583 31.3609 27.317 31.927 27.317H43.1737C43.7404 27.317 44.1991 26.8583 44.1991 26.2917C44.1991 25.7256 43.7404 25.2663 43.1737 25.2663Z" fill="#FC8E20"/>
<path d="M43.1737 33.9746H31.927C31.3609 33.9746 30.9016 34.4334 30.9016 35C30.9016 35.5666 31.3609 36.0254 31.927 36.0254H43.1737C43.7404 36.0254 44.1991 35.5666 44.1991 35C44.1991 34.4334 43.7404 33.9746 43.1737 33.9746Z" fill="#FC8E20"/>
<path d="M43.1737 42.683H31.927C31.3609 42.683 30.9016 43.1417 30.9016 43.7083C30.9016 44.2744 31.3609 44.7337 31.927 44.7337H43.1737C43.7404 44.7337 44.1991 44.2744 44.1991 43.7083C44.1991 43.1417 43.7404 42.683 43.1737 42.683Z" fill="#FC8E20"/>
</svg>
