<svg width="12" height="18" viewBox="0 0 12 18" fill="none" xmlns="http://www.w3.org/2000/svg">
<path d="M5.99997 0C2.69162 0 -4.57764e-05 2.69167 -4.57764e-05 6.00001C-4.57764e-05 6.99318 0.248263 7.9779 0.720306 8.85132L5.67185 17.8066C5.73777 17.926 5.86339 18 5.99997 18C6.13655 18 6.26216 17.926 6.32808 17.8066L11.2815 8.84837C11.7517 7.9779 12 6.99314 12 5.99998C12 2.69167 9.30831 0 5.99997 0ZM5.99997 9C4.3458 9 2.99998 7.65418 2.99998 6.00001C2.99998 4.34584 4.3458 3.00002 5.99997 3.00002C7.65414 3.00002 8.99996 4.34584 8.99996 6.00001C8.99996 7.65418 7.65414 9 5.99997 9Z" fill="#FC8E20"/>
</svg>
