<svg width="19" height="18" viewBox="0 0 19 18" fill="none" xmlns="http://www.w3.org/2000/svg">
<g clip-path="url(#clip0)">
<path d="M18.5539 5.29205C18.5117 4.33564 18.357 3.67812 18.1355 3.10836C17.9069 2.50359 17.5553 1.96213 17.0946 1.51201C16.6445 1.05489 16.0994 0.699691 15.5017 0.474702C14.9286 0.253147 14.2745 0.0984842 13.3181 0.0563159C12.3546 0.0105764 12.0487 0 9.60485 0C7.16101 0 6.85512 0.0105764 5.89514 0.0527447C4.93873 0.0949129 4.28121 0.249713 3.71159 0.471131C3.10668 0.699691 2.56522 1.05132 2.1151 1.51201C1.65798 1.96213 1.30292 2.50716 1.07779 3.10493C0.856235 3.67812 0.701573 4.33207 0.659404 5.28848C0.613665 6.25203 0.603088 6.55792 0.603088 9.00176C0.603088 11.4456 0.613665 11.7515 0.655833 12.7115C0.698001 13.6679 0.852801 14.3254 1.07436 14.8952C1.30292 15.4999 1.65798 16.0414 2.1151 16.4915C2.56522 16.9486 3.11025 17.3038 3.70802 17.5288C4.28121 17.7504 4.93516 17.905 5.8917 17.9472C6.85155 17.9895 7.15758 17.9999 9.60141 17.9999C12.0453 17.9999 12.3511 17.9895 13.3111 17.9472C14.2675 17.905 14.9251 17.7504 15.4947 17.5288C16.7044 17.0611 17.6608 16.1047 18.1285 14.8952C18.3499 14.322 18.5047 13.6679 18.5469 12.7115C18.589 11.7515 18.5996 11.4456 18.5996 9.00176C18.5996 6.55792 18.596 6.25203 18.5539 5.29205ZM16.9329 12.6411C16.8942 13.5202 16.7465 13.9949 16.6235 14.3114C16.321 15.0956 15.6986 15.7179 14.9145 16.0204C14.598 16.1434 14.1199 16.2911 13.2442 16.3297C12.2948 16.372 12.0101 16.3824 9.60842 16.3824C7.20675 16.3824 6.91844 16.372 5.97247 16.3297C5.09339 16.2911 4.61869 16.1434 4.30222 16.0204C3.91199 15.8761 3.55679 15.6476 3.26848 15.3487C2.96959 15.0568 2.74103 14.7052 2.59681 14.315C2.47374 13.9985 2.32608 13.5202 2.28748 12.6447C2.24518 11.6953 2.23474 11.4104 2.23474 9.00876C2.23474 6.60709 2.24518 6.31878 2.28748 5.37295C2.32608 4.49387 2.47374 4.01917 2.59681 3.7027C2.74103 3.31234 2.96959 2.95727 3.27205 2.66883C3.5638 2.36994 3.91543 2.14138 4.30579 1.99729C4.62226 1.87422 5.10053 1.72656 5.97604 1.68783C6.92545 1.64566 7.21032 1.63508 9.61185 1.63508C12.0171 1.63508 12.3018 1.64566 13.2478 1.68783C14.1269 1.72656 14.6016 1.87422 14.9181 1.99729C15.3083 2.14138 15.6635 2.36994 15.9518 2.66883C16.2507 2.96071 16.4792 3.31234 16.6235 3.7027C16.7465 4.01917 16.8942 4.49731 16.9329 5.37295C16.9751 6.32236 16.9857 6.60709 16.9857 9.00876C16.9857 11.4104 16.9751 11.6917 16.9329 12.6411Z" fill="white"/>
<path d="M9.60484 4.37793C7.05209 4.37793 4.9809 6.44898 4.9809 9.00188C4.9809 11.5548 7.05209 13.6258 9.60484 13.6258C12.1577 13.6258 14.2288 11.5548 14.2288 9.00188C14.2288 6.44898 12.1577 4.37793 9.60484 4.37793ZM9.60484 12.0013C7.94874 12.0013 6.6054 10.6581 6.6054 9.00188C6.6054 7.34564 7.94874 6.00244 9.60484 6.00244C11.2611 6.00244 12.6043 7.34564 12.6043 9.00188C12.6043 10.6581 11.2611 12.0013 9.60484 12.0013Z" fill="white"/>
<path d="M15.4912 4.19496C15.4912 4.79108 15.0078 5.27444 14.4116 5.27444C13.8154 5.27444 13.3321 4.79108 13.3321 4.19496C13.3321 3.5987 13.8154 3.11548 14.4116 3.11548C15.0078 3.11548 15.4912 3.5987 15.4912 4.19496Z" fill="white"/>
</g>
<defs>
<clipPath id="clip0">
<rect width="18" height="18" fill="white" transform="translate(0.571472)"/>
</clipPath>
</defs>
</svg>
