<svg width="19" height="18" viewBox="0 0 19 18" fill="none" xmlns="http://www.w3.org/2000/svg">
<g clip-path="url(#clip0)">
<path fill-rule="evenodd" clip-rule="evenodd" d="M15.6835 3.00607C14.1047 1.42548 12.0051 0.554638 9.76836 0.553711C5.15926 0.553711 1.40812 4.30475 1.40626 8.9151C1.40564 10.3889 1.79065 11.8275 2.52244 13.0956L1.33612 17.4287L5.769 16.2659C6.99044 16.9322 8.36555 17.2833 9.76497 17.2837H9.76847C14.3771 17.2837 18.1286 13.5323 18.1304 8.92179C18.1313 6.68738 17.2623 4.58655 15.6835 3.00607ZM9.76836 15.8715H9.76548C8.5184 15.871 7.29531 15.5358 6.22806 14.9027L5.97438 14.752L3.34384 15.4421L4.04597 12.8774L3.88066 12.6144C3.18491 11.5078 2.81752 10.2288 2.81814 8.91561C2.81958 5.08361 5.9375 1.966 9.77115 1.966C11.6276 1.96662 13.3726 2.69048 14.6848 4.00421C15.997 5.31793 16.7192 7.06414 16.7186 8.92128C16.7169 12.7536 13.5992 15.8715 9.76836 15.8715ZM13.5807 10.6661C13.3718 10.5615 12.3445 10.0562 12.1529 9.98637C11.9616 9.91664 11.8221 9.88193 11.683 10.091C11.5436 10.3001 11.1433 10.7708 11.0213 10.9101C10.8994 11.0496 10.7776 11.0671 10.5687 10.9625C10.3597 10.8579 9.68648 10.6372 8.88836 9.92539C8.26729 9.37137 7.84799 8.68716 7.72604 8.47808C7.6043 8.26879 7.72501 8.16662 7.81771 8.05167C8.04389 7.7708 8.27038 7.47633 8.34001 7.33698C8.40973 7.19752 8.37482 7.07547 8.3225 6.97093C8.27038 6.86639 7.85252 5.83796 7.67846 5.41949C7.50872 5.01224 7.33661 5.06724 7.20828 5.06085C7.08653 5.05477 6.94718 5.05354 6.80783 5.05354C6.66857 5.05354 6.44219 5.10576 6.25061 5.31505C6.05914 5.52423 5.51944 6.02964 5.51944 7.05806C5.51944 8.08649 6.26812 9.07999 6.37256 9.21945C6.477 9.35891 7.84593 11.4693 9.94181 12.3742C10.4403 12.5897 10.8294 12.7181 11.133 12.8145C11.6335 12.9735 12.0889 12.951 12.449 12.8973C12.8504 12.8372 13.685 12.3918 13.8593 11.9038C14.0334 11.4157 14.0334 10.9974 13.981 10.9101C13.9289 10.823 13.7896 10.7708 13.5807 10.6661Z" fill="white"/>
</g>
<defs>
<clipPath id="clip0">
<rect width="18" height="18" fill="white" transform="translate(0.714294)"/>
</clipPath>
</defs>
</svg>
