<svg width="19" height="18" viewBox="0 0 19 18" fill="none" xmlns="http://www.w3.org/2000/svg">
<g clip-path="url(#clip0)">
<path d="M15.3648 9.771C15.0738 9.4035 15.1571 9.24 15.3648 8.9115C15.3686 8.90775 17.7708 5.58825 18.0183 4.4625L18.0198 4.46175C18.1428 4.0515 18.0198 3.75 17.4251 3.75H15.4571C14.9561 3.75 14.7251 4.00875 14.6013 4.29825C14.6013 4.29825 13.5993 6.69675 12.1818 8.2515C11.7243 8.70075 11.5128 8.84475 11.2631 8.84475C11.1401 8.84475 10.9488 8.70075 10.9488 8.2905V4.46175C10.9488 3.96975 10.8086 3.75 10.3938 3.75H7.29934C6.98509 3.75 6.79834 3.9795 6.79834 4.19325C6.79834 4.65975 7.50709 4.767 7.58059 6.0795V8.92725C7.58059 9.55125 7.46734 9.666 7.21609 9.666C6.54709 9.666 4.92334 7.25775 3.96109 4.5015C3.76684 3.96675 3.57709 3.75075 3.07234 3.75075H1.10359C0.541839 3.75075 0.428589 4.0095 0.428589 4.299C0.428589 4.8105 1.09759 7.35375 3.53959 10.7138C5.16709 13.0073 7.45909 14.25 9.54409 14.25C10.7973 14.25 10.9503 13.974 10.9503 13.4993C10.9503 11.3078 10.8371 11.1008 11.4648 11.1008C11.7558 11.1008 12.2568 11.2448 13.4268 12.351C14.7641 13.6628 14.9838 14.25 15.7323 14.25H17.7003C18.2613 14.25 18.5456 13.974 18.3821 13.4295C18.0078 12.2843 15.4788 9.9285 15.3648 9.771Z" fill="white"/>
</g>
<defs>
<clipPath id="clip0">
<rect width="18" height="18" fill="white" transform="translate(0.428589)"/>
</clipPath>
</defs>
</svg>
